<svg id="logo-45" xmlns="http://www.w3.org/2000/svg" xmlns:xlink="http://www.w3.org/1999/xlink" viewBox="0 0 38.78 31.03"><defs><linearGradient id="linear-gradient" x1="45.39" y1="36.24" x2="14.37" y2="36.24" gradientTransform="matrix(1, 0, 0, -1, 0, 54)" gradientUnits="userSpaceOnUse"><stop offset="0" stop-color="#009688"/><stop offset="1" stop-color="#00645b"/></linearGradient><linearGradient id="linear-gradient-2" x1="6.61" y1="20.73" x2="37.63" y2="20.73" gradientTransform="matrix(1, 0, 0, -1, 0, 54)" gradientUnits="userSpaceOnUse"><stop offset="0" stop-color="#00645b"/><stop offset="1" stop-color="#00322d"/></linearGradient></defs><path d="M45.39,25.51a15.51,15.51,0,1,0-31,0h4.84a4,4,0,0,0,3.45-2.84,7.75,7.75,0,0,1,15,2.84Z" transform="translate(-6.61 -10)" fill="url(#linear-gradient)"/><path d="M36.45,31.45a15.5,15.5,0,0,0,1.18-5.94h7.76a15.5,15.5,0,0,1-19.4,15,15.23,15.23,0,0,0,2.07-.69,15.49,15.49,0,0,0,8.39-8.39Z" transform="translate(-6.61 -10)" fill="#00645b"/><path d="M6.61,25.51a15.51,15.51,0,1,0,31,0H32.79a4,4,0,0,0-3.45,2.84s0,.09-.05.13a7.76,7.76,0,0,1-14.92-3Z" transform="translate(-6.61 -10)" fill="url(#linear-gradient-2)"/><path d="M6.61,25.51a15.53,15.53,0,0,1,19.4-15,15.5,15.5,0,0,0-11.64,15Z" transform="translate(-6.61 -10)" fill="#009688"/></svg>